<svg width="48" height="48" viewBox="0 0 48 48" fill="none" xmlns="http://www.w3.org/2000/svg">
<path d="M0 8C0 3.58172 3.58172 0 8 0H40C44.4183 0 48 3.58172 48 8V40C48 44.4183 44.4183 48 40 48H8C3.58172 48 0 44.4183 0 40V8Z" fill="#2563EB"/>
<path d="M27.7068 33.2931C27.5193 33.4806 27.265 33.5859 26.9998 33.5859C26.7347 33.5859 26.4804 33.4806 26.2928 33.2931L24.7068 31.7071C24.5194 31.5196 24.4141 31.2653 24.4141 31.0001C24.4141 30.7349 24.5194 30.4806 24.7068 30.2931L30.2928 24.7071C30.4804 24.5196 30.7347 24.4143 30.9998 24.4143C31.265 24.4143 31.5193 24.5196 31.7069 24.7071L33.2928 26.2931C33.4803 26.4806 33.5856 26.7349 33.5856 27.0001C33.5856 27.2653 33.4803 27.5196 33.2928 27.7071L27.7068 33.2931Z" stroke="white" stroke-width="2" stroke-linecap="round" stroke-linejoin="round"/>
<path d="M30 25L28.625 18.126C28.5876 17.939 28.4975 17.7666 28.3653 17.6291C28.2331 17.4916 28.0644 17.3947 27.879 17.35L15.235 14.028C15.0684 13.9877 14.8943 13.9909 14.7293 14.0373C14.5644 14.0837 14.4141 14.1717 14.2929 14.2929C14.1717 14.4141 14.0837 14.5644 14.0373 14.7293C13.9909 14.8943 13.9877 15.0684 14.028 15.235L17.35 27.879C17.3947 28.0644 17.4916 28.2331 17.6291 28.3653C17.7666 28.4975 17.939 28.5876 18.126 28.625L25 30" stroke="white" stroke-width="2" stroke-linecap="round" stroke-linejoin="round"/>
<path d="M14.2998 14.3L21.5858 21.586" stroke="white" stroke-width="2" stroke-linecap="round" stroke-linejoin="round"/>
<path d="M23 25C24.1046 25 25 24.1046 25 23C25 21.8954 24.1046 21 23 21C21.8954 21 21 21.8954 21 23C21 24.1046 21.8954 25 23 25Z" stroke="white" stroke-width="2" stroke-linecap="round" stroke-linejoin="round"/>
</svg>
