<svg width="48" height="48" viewBox="0 0 48 48" fill="none" xmlns="http://www.w3.org/2000/svg">
<path d="M0 8C0 3.58172 3.58172 0 8 0H40C44.4183 0 48 3.58172 48 8V40C48 44.4183 44.4183 48 40 48H8C3.58172 48 0 44.4183 0 40V8Z" fill="#9333EA"/>
<path d="M32 15H16C14.8954 15 14 15.8954 14 17V27C14 28.1046 14.8954 29 16 29H32C33.1046 29 34 28.1046 34 27V17C34 15.8954 33.1046 15 32 15Z" stroke="white" stroke-width="2" stroke-linecap="round" stroke-linejoin="round"/>
<path d="M20 33H28" stroke="white" stroke-width="2" stroke-linecap="round" stroke-linejoin="round"/>
<path d="M24 29V33" stroke="white" stroke-width="2" stroke-linecap="round" stroke-linejoin="round"/>
</svg>
