<svg width="22" height="24" viewBox="0 0 22 24" fill="none" xmlns="http://www.w3.org/2000/svg">
<circle cx="10" cy="13.7498" r="9" stroke="#0A3641" stroke-width="2"/>
<g clip-path="url(#clip0_18_61)">
<path d="M19.9365 3.25329C20.2672 3.23082 20.5941 3.34075 20.8438 3.55867C21.0934 3.77664 21.2463 4.08496 21.2688 4.41556C21.2912 4.74614 21.1813 5.07218 20.9635 5.3219L9.63802 18.2982C9.53008 18.4219 9.3982 18.5231 9.25113 18.596C9.10429 18.6689 8.94465 18.712 8.78113 18.7232C8.61733 18.7343 8.45239 18.7132 8.2968 18.6608C8.14128 18.6084 7.99746 18.5257 7.87382 18.4178C7.8537 18.4001 7.81328 18.3578 7.77068 18.3113C7.75118 18.29 7.73336 18.2703 7.72042 18.2558C7.71395 18.2485 7.70879 18.2418 7.70523 18.2378C7.70345 18.2358 7.70184 18.2343 7.70095 18.2332L7.70012 18.2321L3.082 12.5513C2.87293 12.294 2.77465 11.9639 2.80871 11.6342C2.8428 11.3045 3.0063 11.0017 3.26351 10.7926C3.52074 10.5836 3.85086 10.4853 4.18058 10.5194C4.34373 10.5362 4.5021 10.5849 4.64639 10.6629C4.79076 10.741 4.91861 10.8468 5.02213 10.9742L8.54281 15.3064L8.72977 15.5373L8.9255 15.3137L19.0796 3.67824C19.2975 3.42862 19.606 3.27586 19.9365 3.25329Z" fill="#0A3641" stroke="white" stroke-width="0.5"/>
</g>
<defs>
<clipPath id="clip0_18_61">
<rect width="18" height="18" fill="white" transform="translate(4.04932 0.250244) rotate(8.14019)"/>
</clipPath>
</defs>
</svg>
