<svg width="48" height="48" viewBox="0 0 48 48" fill="none" xmlns="http://www.w3.org/2000/svg">
<path d="M0 8C0 3.58172 3.58172 0 8 0H40C44.4183 0 48 3.58172 48 8V40C48 44.4183 44.4183 48 40 48H8C3.58172 48 0 44.4183 0 40V8Z" fill="#D97706"/>
<path d="M28 22C28 23.0609 27.5786 24.0783 26.8284 24.8284C26.0783 25.5786 25.0609 26 24 26C22.9391 26 21.9217 25.5786 21.1716 24.8284C20.4214 24.0783 20 23.0609 20 22" stroke="white" stroke-width="2" stroke-linecap="round" stroke-linejoin="round"/>
<path d="M15.103 18.0339H32.897" stroke="white" stroke-width="2" stroke-linecap="round" stroke-linejoin="round"/>
<path d="M15.4 17.467C15.1404 17.8132 15 18.2343 15 18.667V32C15 32.5304 15.2107 33.0391 15.5858 33.4142C15.9609 33.7893 16.4696 34 17 34H31C31.5304 34 32.0391 33.7893 32.4142 33.4142C32.7893 33.0391 33 32.5304 33 32V18.667C33 18.2343 32.8596 17.8132 32.6 17.467L30.6 14.8C30.4137 14.5516 30.1721 14.35 29.8944 14.2111C29.6167 14.0723 29.3105 14 29 14H19C18.6895 14 18.3833 14.0723 18.1056 14.2111C17.8279 14.35 17.5863 14.5516 17.4 14.8L15.4 17.467Z" stroke="white" stroke-width="2" stroke-linecap="round" stroke-linejoin="round"/>
</svg>
