<svg width="21" height="22" viewBox="0 0 21 22" fill="none" xmlns="http://www.w3.org/2000/svg">
<path d="M8.00908 5.232C9.11771 3.244 9.67158 2.25 10.5002 2.25C11.3288 2.25 11.8827 3.244 12.9913 5.232L13.2783 5.7465C13.5933 6.31175 13.7508 6.59437 13.9958 6.78075C14.2408 6.96712 14.5471 7.03625 15.1596 7.1745L15.7161 7.3005C17.8686 7.78787 18.944 8.03113 19.2003 8.8545C19.4558 9.677 18.7226 10.5354 17.2552 12.2512L16.8755 12.6949C16.459 13.1822 16.2498 13.4264 16.1562 13.7274C16.0626 14.0292 16.0941 14.3547 16.1571 15.0049L16.2148 15.5972C16.4362 17.8871 16.5473 19.0316 15.8771 19.54C15.2068 20.0484 14.1988 19.5846 12.1846 18.6571L11.6622 18.4174C11.09 18.1531 10.8038 18.0219 10.5002 18.0219C10.1966 18.0219 9.91045 18.1531 9.33821 18.4174L8.81671 18.6571C6.80158 19.5846 5.79358 20.0484 5.12421 19.5409C4.45308 19.0316 4.56421 17.8871 4.78558 15.5972L4.84333 15.0057C4.90633 14.3547 4.93783 14.0292 4.84333 13.7282C4.75058 13.4264 4.54146 13.1822 4.12496 12.6957L3.74521 12.2512C2.27783 10.5363 1.54458 9.67787 1.80008 8.8545C2.05558 8.03113 3.13271 7.787 5.28521 7.3005L5.84171 7.1745C6.45333 7.03625 6.75871 6.96712 7.00458 6.78075C7.25046 6.59437 7.40708 6.31175 7.72208 5.7465L8.00908 5.232Z" fill="#FACE1E" stroke="#FACE1E" stroke-width="2"/>
</svg>
